<svg width="1402" height="599" viewBox="0 0 1402 599" fill="none" xmlns="http://www.w3.org/2000/svg">
<rect x="1" y="1" width="1400" height="597" rx="9" stroke="#A1AFC9" stroke-width="2"/>
<path d="M1217.5 365V449H1382" stroke="#F9CA24" stroke-width="3" stroke-dasharray="4 4"/>
<path d="M1208.5 365V472H1373.5" stroke="#6AB04C" stroke-width="3" stroke-dasharray="4 4"/>
<path d="M1193.5 367.5V436H1058.5V481" stroke="#FF0000" stroke-width="3"/>
<path d="M776 536.5V504.5H714V564.5H190V362.5" stroke="black" stroke-width="3"/>
<path d="M816 534.5V269.5H652.5" stroke="black" stroke-width="3"/>
<g filter="url(#filter0_d_711_7)">
<path d="M690 64C690 58.4772 685.523 54 680 54H438.281C432.758 54 428.281 58.4772 428.281 64V551.835H690V64Z" fill="#C7ECEE"/>
</g>
<line y1="-1" x2="261.719" y2="-1" transform="matrix(-1 0 0 1 690 227.53)" stroke="black" stroke-width="2"/>
<rect x="-1" y="1" width="9.37908" height="43.5163" transform="matrix(-1 0 0 1 488.866 150.723)" stroke="black" stroke-width="2"/>
<rect x="-1" y="1" width="9.37908" height="43.5163" transform="matrix(-1 0 0 1 488.866 258.823)" stroke="black" stroke-width="2"/>
<rect width="28.4477" height="19.9134" transform="matrix(-1 0 0 1 661.552 551.835)" fill="black"/>
<rect width="28.4477" height="19.9134" transform="matrix(-1 0 0 1 485.177 551.835)" fill="black"/>
<g filter="url(#filter1_d_711_7)">
<path d="M967.659 539.366C967.659 537.157 965.868 535.366 963.659 535.366H745C742.791 535.366 741 537.157 741 539.366V573H967.659V539.366Z" fill="white" stroke="black" stroke-width="2"/>
<ellipse rx="6.85976" ry="6.09756" transform="matrix(-1 0 0 1 759.055 549.61)" fill="#B34B48"/>
</g>
<g filter="url(#filter2_d_711_7)">
<rect width="15.2669" height="143.945" transform="matrix(-1 0 0 1 325.338 429.566)" fill="#F0932B"/>
<rect width="15.2669" height="252.995" transform="matrix(4.37114e-08 1 1 -4.37114e-08 57.0768 433.93)" fill="#F0932B"/>
<rect width="15.2669" height="150.488" transform="matrix(-1 0 0 1 57.0768 423.023)" fill="#F0932B"/>
<rect width="327.148" height="32.7148" rx="15" transform="matrix(-1 0 0 1 347.148 396.852)" fill="#FFBE76"/>
</g>
<line x1="2" y1="-2" x2="65.3541" y2="-2" transform="matrix(-1 0 0 1 218.213 396.698)" stroke="#101010" stroke-width="4" stroke-linecap="round"/>
<line y1="-1" x2="23.0928" y2="-1" transform="matrix(-4.37114e-08 1 1 4.37114e-08 198.969 373.604)" stroke="#101010" stroke-width="2"/>
<line y1="-1" x2="23.0928" y2="-1" transform="matrix(-4.37114e-08 1 1 4.37114e-08 173.952 373.604)" stroke="#101010" stroke-width="2"/>
<g filter="url(#filter3_d_711_7)">
<rect width="196.289" height="115.464" rx="3" transform="matrix(-1 0 0 1 281.719 258.141)" fill="white"/>
<rect width="188.437" height="105.996" rx="3" transform="matrix(-1 0 0 1 277.793 263.375)" fill="#0D0D0D"/>
</g>
<path d="M1028.35 525.218H1085.79C1090.98 525.218 1095.18 521.015 1095.18 515.831V458.387C1095.18 453.203 1090.98 449 1085.79 449H1028.35C1023.17 449 1018.96 453.203 1018.96 458.387V515.831C1018.96 521.015 1023.17 525.218 1028.35 525.218Z" fill="white"/>
<path d="M1079.39 459.012C1082.58 459.012 1085.17 461.602 1085.17 464.787V509.428C1085.17 512.613 1082.58 515.203 1079.39 515.203H1034.75C1031.57 515.203 1028.98 512.613 1028.98 509.428V464.787C1028.98 461.602 1031.57 459.012 1034.75 459.012H1079.39ZM1034.75 518.243H1079.39C1084.25 518.243 1088.21 514.289 1088.21 509.428V464.787C1088.21 459.925 1084.25 455.971 1079.39 455.971H1034.75C1029.89 455.971 1025.94 459.925 1025.94 464.787V509.428C1025.94 514.289 1029.89 518.243 1034.75 518.243Z" fill="#D3D2D0"/>
<path d="M1037.01 487.106C1037.01 498.186 1045.99 507.168 1057.07 507.168C1068.15 507.168 1077.13 498.186 1077.13 487.106C1077.13 476.027 1068.15 467.046 1057.07 467.046C1045.99 467.046 1037.01 476.027 1037.01 487.106Z" fill="#C2C0BE"/>
<path d="M1037.01 489.119C1037.01 499.086 1045.09 507.168 1055.06 507.168C1065.03 507.168 1073.11 499.086 1073.11 489.119C1073.11 479.151 1065.03 471.071 1055.06 471.071C1045.09 471.071 1037.01 479.151 1037.01 489.119Z" fill="#E3E2E0"/>
<path d="M1053.61 487.11C1053.61 489.024 1055.16 490.575 1057.07 490.575C1058.99 490.575 1060.54 489.024 1060.54 487.11C1060.54 485.197 1058.99 483.646 1057.07 483.646C1055.16 483.646 1053.61 485.197 1053.61 487.11Z" fill="#AAA9A8"/>
<path d="M1059.91 489.082C1059.8 489.249 1059.67 489.411 1059.52 489.56C1059.37 489.708 1059.21 489.834 1059.04 489.951L1054.24 485.135C1054.35 484.968 1054.48 484.805 1054.62 484.656C1054.77 484.508 1054.94 484.383 1055.1 484.267L1059.91 489.082Z" fill="#767779"/>
<path d="M1045.9 482.225C1048.6 482.225 1050.78 484.41 1050.78 487.107C1050.78 489.804 1048.6 491.992 1045.9 491.992C1043.2 491.992 1041.01 489.804 1041.01 487.107C1041.01 484.41 1043.2 482.225 1045.9 482.225Z" fill="#595A5C"/>
<path d="M1068.25 482.225C1070.95 482.225 1073.13 484.41 1073.13 487.107C1073.13 489.804 1070.95 491.992 1068.25 491.992C1065.55 491.992 1063.36 489.804 1063.36 487.107C1063.36 484.41 1065.55 482.225 1068.25 482.225Z" fill="#595A5C"/>
<mask id="path-32-inside-1_711_7" fill="white">
<path d="M1028.35 525.218H1085.79C1090.98 525.218 1095.18 521.015 1095.18 515.831V458.387C1095.18 453.203 1090.98 449 1085.79 449H1028.35C1023.17 449 1018.96 453.203 1018.96 458.387V515.831C1018.96 521.015 1023.17 525.218 1028.35 525.218Z"/>
</mask>
<path d="M1028.35 525.218H1085.79C1090.98 525.218 1095.18 521.015 1095.18 515.831V458.387C1095.18 453.203 1090.98 449 1085.79 449H1028.35C1023.17 449 1018.96 453.203 1018.96 458.387V515.831C1018.96 521.015 1023.17 525.218 1028.35 525.218Z" fill="white"/>
<path d="M1028.35 526.218H1085.79V524.218H1028.35V526.218ZM1085.79 526.218C1091.53 526.218 1096.18 521.567 1096.18 515.831H1094.18C1094.18 520.462 1090.43 524.218 1085.79 524.218V526.218ZM1096.18 515.831V458.387H1094.18V515.831H1096.18ZM1096.18 458.387C1096.18 452.651 1091.53 448 1085.79 448V450C1090.43 450 1094.18 453.755 1094.18 458.387H1096.18ZM1085.79 448H1028.35V450H1085.79V448ZM1028.35 448C1022.61 448 1017.96 452.651 1017.96 458.387H1019.96C1019.96 453.755 1023.72 450 1028.35 450V448ZM1017.96 458.387V515.831H1019.96V458.387H1017.96ZM1017.96 515.831C1017.96 521.567 1022.61 526.218 1028.35 526.218V524.218C1023.72 524.218 1019.96 520.462 1019.96 515.831H1017.96Z" fill="#D3D2D0" mask="url(#path-32-inside-1_711_7)"/>
<path d="M1079.39 459.012C1082.58 459.012 1085.17 461.602 1085.17 464.787V509.428C1085.17 512.613 1082.58 515.203 1079.39 515.203H1034.75C1031.57 515.203 1028.98 512.613 1028.98 509.428V464.787C1028.98 461.602 1031.57 459.012 1034.75 459.012H1079.39ZM1034.75 518.243H1079.39C1084.25 518.243 1088.21 514.289 1088.21 509.428V464.787C1088.21 459.925 1084.25 455.971 1079.39 455.971H1034.75C1029.89 455.971 1025.94 459.925 1025.94 464.787V509.428C1025.94 514.289 1029.89 518.243 1034.75 518.243Z" fill="#D3D2D0"/>
<path d="M1037.01 487.106C1037.01 498.186 1045.99 507.168 1057.07 507.168C1068.15 507.168 1077.13 498.186 1077.13 487.106C1077.13 476.027 1068.15 467.046 1057.07 467.046C1045.99 467.046 1037.01 476.027 1037.01 487.106Z" fill="#C2C0BE"/>
<path d="M1037.01 489.119C1037.01 499.086 1045.09 507.168 1055.06 507.168C1065.03 507.168 1073.11 499.086 1073.11 489.119C1073.11 479.151 1065.03 471.071 1055.06 471.071C1045.09 471.071 1037.01 479.151 1037.01 489.119Z" fill="#E3E2E0"/>
<path d="M1053.61 487.11C1053.61 489.024 1055.16 490.575 1057.07 490.575C1058.99 490.575 1060.54 489.024 1060.54 487.11C1060.54 485.197 1058.99 483.646 1057.07 483.646C1055.16 483.646 1053.61 485.197 1053.61 487.11Z" fill="#AAA9A8"/>
<path d="M1059.91 489.082C1059.8 489.249 1059.67 489.411 1059.52 489.56C1059.37 489.708 1059.21 489.834 1059.04 489.951L1054.24 485.135C1054.35 484.968 1054.48 484.805 1054.62 484.656C1054.77 484.508 1054.94 484.383 1055.1 484.267L1059.91 489.082Z" fill="#767779"/>
<path d="M1045.9 482.225C1048.6 482.225 1050.78 484.41 1050.78 487.107C1050.78 489.804 1048.6 491.992 1045.9 491.992C1043.2 491.992 1041.01 489.804 1041.01 487.107C1041.01 484.41 1043.2 482.225 1045.9 482.225Z" fill="#595A5C"/>
<path d="M1068.25 482.225C1070.95 482.225 1073.13 484.41 1073.13 487.107C1073.13 489.804 1070.95 491.992 1068.25 491.992C1065.55 491.992 1063.36 489.804 1063.36 487.107C1063.36 484.41 1065.55 482.225 1068.25 482.225Z" fill="#595A5C"/>
<circle r="17.5" transform="matrix(-1 0 0 1 1056.68 487.5)" fill="black"/>
<line x1="1056.68" y1="493.5" x2="1056.68" y2="567.5" stroke="black" stroke-width="3" stroke-linecap="round"/>
<line x1="969.683" y1="567.5" x2="1056.68" y2="567.5" stroke="black" stroke-width="3" stroke-linecap="round"/>
<path d="M162.288 240.576C161.088 240.576 160 240.272 159.024 239.664C158.048 239.072 157.32 238.288 156.84 237.312L157.92 236.496C158.368 237.28 158.976 237.912 159.744 238.392C160.528 238.872 161.384 239.112 162.312 239.112C163.112 239.112 163.824 238.936 164.448 238.584C165.088 238.232 165.592 237.744 165.96 237.12C166.344 236.496 166.536 235.776 166.536 234.96C166.536 234.176 166.352 233.488 165.984 232.896C165.632 232.288 165.144 231.816 164.52 231.48C163.912 231.144 163.224 230.976 162.456 230.976C161.72 230.976 161.016 231.144 160.344 231.48C159.672 231.8 159.128 232.272 158.712 232.896H157.2L159.096 223.296H167.328V224.808H160.32L159.144 230.928C159.56 230.48 160.072 230.136 160.68 229.896C161.288 229.64 161.944 229.512 162.648 229.512C163.688 229.512 164.624 229.744 165.456 230.208C166.304 230.672 166.976 231.312 167.472 232.128C167.968 232.944 168.216 233.88 168.216 234.936C168.216 236.056 167.944 237.04 167.4 237.888C166.872 238.736 166.16 239.392 165.264 239.856C164.368 240.336 163.376 240.576 162.288 240.576ZM182.446 229.968C182.446 231.376 182.182 232.632 181.654 233.736C181.142 234.824 180.43 235.68 179.518 236.304C178.606 236.928 177.574 237.24 176.422 237.24C175.27 237.24 174.238 236.928 173.326 236.304C172.43 235.68 171.718 234.824 171.19 233.736C170.662 232.632 170.398 231.376 170.398 229.968C170.398 228.56 170.662 227.312 171.19 226.224C171.718 225.12 172.43 224.256 173.326 223.632C174.238 222.992 175.27 222.672 176.422 222.672C177.574 222.672 178.606 222.992 179.518 223.632C180.43 224.256 181.142 225.12 181.654 226.224C182.182 227.312 182.446 228.56 182.446 229.968ZM180.79 229.968C180.79 228.832 180.606 227.832 180.238 226.968C179.87 226.104 179.358 225.432 178.702 224.952C178.046 224.456 177.286 224.208 176.422 224.208C175.558 224.208 174.798 224.456 174.142 224.952C173.486 225.432 172.966 226.104 172.582 226.968C172.214 227.832 172.03 228.832 172.03 229.968C172.03 231.104 172.214 232.104 172.582 232.968C172.966 233.832 173.486 234.504 174.142 234.984C174.798 235.464 175.558 235.704 176.422 235.704C177.286 235.704 178.046 235.464 178.702 234.984C179.358 234.488 179.87 233.816 180.238 232.968C180.606 232.104 180.79 231.104 180.79 229.968ZM204.843 232.608C204.843 233.456 204.627 234.216 204.195 234.888C203.763 235.544 203.179 236.064 202.443 236.448C201.723 236.816 200.931 237 200.067 237H192.027V219.96H200.235C201.035 219.96 201.723 220.176 202.299 220.608C202.891 221.024 203.339 221.568 203.643 222.24C203.963 222.896 204.123 223.584 204.123 224.304C204.123 225.152 203.907 225.936 203.475 226.656C203.043 227.376 202.443 227.912 201.675 228.264C202.651 228.552 203.419 229.088 203.979 229.872C204.555 230.656 204.843 231.568 204.843 232.608ZM203.163 232.32C203.163 231.744 203.035 231.216 202.779 230.736C202.523 230.24 202.171 229.84 201.723 229.536C201.291 229.232 200.795 229.08 200.235 229.08H193.707V235.536H200.067C200.643 235.536 201.163 235.384 201.627 235.08C202.091 234.776 202.459 234.384 202.731 233.904C203.019 233.408 203.163 232.88 203.163 232.32ZM193.707 221.424V227.712H199.563C200.123 227.712 200.619 227.568 201.051 227.28C201.483 226.976 201.827 226.584 202.083 226.104C202.339 225.624 202.467 225.112 202.467 224.568C202.467 223.992 202.347 223.472 202.107 223.008C201.867 222.528 201.539 222.144 201.123 221.856C200.707 221.568 200.235 221.424 199.707 221.424H193.707ZM210.795 237V225.96H206.331V224.496H216.891V225.96H212.427V237H210.795Z" fill="black"/>
<path d="M529.232 29.336C529.952 29.448 530.568 29.704 531.08 30.104C531.592 30.504 531.992 31.008 532.28 31.616C532.568 32.224 532.712 32.912 532.712 33.68C532.712 34.64 532.48 35.488 532.016 36.224C531.552 36.96 530.904 37.528 530.072 37.928C529.24 38.328 528.272 38.528 527.168 38.528C525.952 38.528 524.888 38.28 523.976 37.784C523.064 37.304 522.376 36.632 521.912 35.768L523.04 34.736C523.392 35.424 523.912 35.976 524.6 36.392C525.288 36.824 526.144 37.04 527.168 37.04C528.352 37.04 529.288 36.744 529.976 36.152C530.68 35.576 531.032 34.744 531.032 33.656C531.032 32.568 530.664 31.704 529.928 31.064C529.208 30.408 528.176 30.08 526.832 30.08H526.232V28.688H526.88C528.112 28.688 529.056 28.4 529.712 27.824C530.368 27.248 530.696 26.512 530.696 25.616C530.696 24.96 530.544 24.416 530.24 23.984C529.936 23.552 529.52 23.224 528.992 23C528.48 22.776 527.888 22.664 527.216 22.664C526.304 22.664 525.496 22.872 524.792 23.288C524.104 23.688 523.584 24.248 523.232 24.968L522.176 23.96C522.448 23.4 522.84 22.912 523.352 22.496C523.864 22.08 524.464 21.76 525.152 21.536C525.84 21.296 526.576 21.176 527.36 21.176C528.352 21.176 529.224 21.36 529.976 21.728C530.728 22.08 531.32 22.576 531.752 23.216C532.184 23.856 532.4 24.608 532.4 25.472C532.4 26.112 532.272 26.704 532.016 27.248C531.76 27.792 531.392 28.248 530.912 28.616C530.448 28.984 529.888 29.224 529.232 29.336ZM547.188 27.968C547.188 29.376 546.924 30.632 546.396 31.736C545.884 32.824 545.172 33.68 544.26 34.304C543.348 34.928 542.316 35.24 541.164 35.24C540.012 35.24 538.98 34.928 538.068 34.304C537.172 33.68 536.46 32.824 535.932 31.736C535.404 30.632 535.14 29.376 535.14 27.968C535.14 26.56 535.404 25.312 535.932 24.224C536.46 23.12 537.172 22.256 538.068 21.632C538.98 20.992 540.012 20.672 541.164 20.672C542.316 20.672 543.348 20.992 544.26 21.632C545.172 22.256 545.884 23.12 546.396 24.224C546.924 25.312 547.188 26.56 547.188 27.968ZM545.532 27.968C545.532 26.832 545.348 25.832 544.98 24.968C544.612 24.104 544.1 23.432 543.444 22.952C542.788 22.456 542.028 22.208 541.164 22.208C540.3 22.208 539.54 22.456 538.884 22.952C538.228 23.432 537.708 24.104 537.324 24.968C536.956 25.832 536.772 26.832 536.772 27.968C536.772 29.104 536.956 30.104 537.324 30.968C537.708 31.832 538.228 32.504 538.884 32.984C539.54 33.464 540.3 33.704 541.164 33.704C542.028 33.704 542.788 33.464 543.444 32.984C544.1 32.488 544.612 31.816 544.98 30.968C545.348 30.104 545.532 29.104 545.532 27.968ZM561.884 27.968C561.884 29.376 561.62 30.632 561.092 31.736C560.58 32.824 559.868 33.68 558.956 34.304C558.044 34.928 557.012 35.24 555.86 35.24C554.708 35.24 553.676 34.928 552.764 34.304C551.868 33.68 551.156 32.824 550.628 31.736C550.1 30.632 549.836 29.376 549.836 27.968C549.836 26.56 550.1 25.312 550.628 24.224C551.156 23.12 551.868 22.256 552.764 21.632C553.676 20.992 554.708 20.672 555.86 20.672C557.012 20.672 558.044 20.992 558.956 21.632C559.868 22.256 560.58 23.12 561.092 24.224C561.62 25.312 561.884 26.56 561.884 27.968ZM560.228 27.968C560.228 26.832 560.044 25.832 559.676 24.968C559.308 24.104 558.796 23.432 558.14 22.952C557.484 22.456 556.724 22.208 555.86 22.208C554.996 22.208 554.236 22.456 553.58 22.952C552.924 23.432 552.404 24.104 552.02 24.968C551.652 25.832 551.468 26.832 551.468 27.968C551.468 29.104 551.652 30.104 552.02 30.968C552.404 31.832 552.924 32.504 553.58 32.984C554.236 33.464 554.996 33.704 555.86 33.704C556.724 33.704 557.484 33.464 558.14 32.984C558.796 32.488 559.308 31.816 559.676 30.968C560.044 30.104 560.228 29.104 560.228 27.968ZM584.28 30.608C584.28 31.456 584.064 32.216 583.632 32.888C583.2 33.544 582.616 34.064 581.88 34.448C581.16 34.816 580.368 35 579.504 35H571.464V17.96H579.672C580.472 17.96 581.16 18.176 581.736 18.608C582.328 19.024 582.776 19.568 583.08 20.24C583.4 20.896 583.56 21.584 583.56 22.304C583.56 23.152 583.344 23.936 582.912 24.656C582.48 25.376 581.88 25.912 581.112 26.264C582.088 26.552 582.856 27.088 583.416 27.872C583.992 28.656 584.28 29.568 584.28 30.608ZM582.6 30.32C582.6 29.744 582.472 29.216 582.216 28.736C581.96 28.24 581.608 27.84 581.16 27.536C580.728 27.232 580.232 27.08 579.672 27.08H573.144V33.536H579.504C580.08 33.536 580.6 33.384 581.064 33.08C581.528 32.776 581.896 32.384 582.168 31.904C582.456 31.408 582.6 30.88 582.6 30.32ZM573.144 19.424V25.712H579C579.56 25.712 580.056 25.568 580.488 25.28C580.92 24.976 581.264 24.584 581.52 24.104C581.776 23.624 581.904 23.112 581.904 22.568C581.904 21.992 581.784 21.472 581.544 21.008C581.304 20.528 580.976 20.144 580.56 19.856C580.144 19.568 579.672 19.424 579.144 19.424H573.144ZM590.233 35V23.96H585.769V22.496H596.329V23.96H591.865V35H590.233Z" fill="black"/>
<defs>
<filter id="filter0_d_711_7" x="420.281" y="46" width="281.719" height="517.835" filterUnits="userSpaceOnUse" color-interpolation-filters="sRGB">
<feFlood flood-opacity="0" result="BackgroundImageFix"/>
<feColorMatrix in="SourceAlpha" type="matrix" values="0 0 0 0 0 0 0 0 0 0 0 0 0 0 0 0 0 0 127 0" result="hardAlpha"/>
<feOffset dx="2" dy="2"/>
<feGaussianBlur stdDeviation="5"/>
<feComposite in2="hardAlpha" operator="out"/>
<feColorMatrix type="matrix" values="0 0 0 0 0 0 0 0 0 0 0 0 0 0 0 0 0 0 0.25 0"/>
<feBlend mode="normal" in2="BackgroundImageFix" result="effect1_dropShadow_711_7"/>
<feBlend mode="normal" in="SourceGraphic" in2="effect1_dropShadow_711_7" result="shape"/>
</filter>
<filter id="filter1_d_711_7" x="737" y="531.366" width="238.659" height="49.6338" filterUnits="userSpaceOnUse" color-interpolation-filters="sRGB">
<feFlood flood-opacity="0" result="BackgroundImageFix"/>
<feColorMatrix in="SourceAlpha" type="matrix" values="0 0 0 0 0 0 0 0 0 0 0 0 0 0 0 0 0 0 127 0" result="hardAlpha"/>
<feOffset dx="2" dy="2"/>
<feGaussianBlur stdDeviation="2.5"/>
<feComposite in2="hardAlpha" operator="out"/>
<feColorMatrix type="matrix" values="0 0 0 0 0 0 0 0 0 0 0 0 0 0 0 0 0 0 0.25 0"/>
<feBlend mode="normal" in2="BackgroundImageFix" result="effect1_dropShadow_711_7"/>
<feBlend mode="normal" in="SourceGraphic" in2="effect1_dropShadow_711_7" result="shape"/>
</filter>
<filter id="filter2_d_711_7" x="17" y="393.852" width="337.148" height="186.66" filterUnits="userSpaceOnUse" color-interpolation-filters="sRGB">
<feFlood flood-opacity="0" result="BackgroundImageFix"/>
<feColorMatrix in="SourceAlpha" type="matrix" values="0 0 0 0 0 0 0 0 0 0 0 0 0 0 0 0 0 0 127 0" result="hardAlpha"/>
<feOffset dx="2" dy="2"/>
<feGaussianBlur stdDeviation="2.5"/>
<feComposite in2="hardAlpha" operator="out"/>
<feColorMatrix type="matrix" values="0 0 0 0 0 0 0 0 0 0 0 0 0 0 0 0 0 0 0.25 0"/>
<feBlend mode="normal" in2="BackgroundImageFix" result="effect1_dropShadow_711_7"/>
<feBlend mode="normal" in="SourceGraphic" in2="effect1_dropShadow_711_7" result="shape"/>
</filter>
<filter id="filter3_d_711_7" x="77.4297" y="250.141" width="216.289" height="135.464" filterUnits="userSpaceOnUse" color-interpolation-filters="sRGB">
<feFlood flood-opacity="0" result="BackgroundImageFix"/>
<feColorMatrix in="SourceAlpha" type="matrix" values="0 0 0 0 0 0 0 0 0 0 0 0 0 0 0 0 0 0 127 0" result="hardAlpha"/>
<feOffset dx="2" dy="2"/>
<feGaussianBlur stdDeviation="5"/>
<feComposite in2="hardAlpha" operator="out"/>
<feColorMatrix type="matrix" values="0 0 0 0 0 0 0 0 0 0 0 0 0 0 0 0 0 0 0.25 0"/>
<feBlend mode="normal" in2="BackgroundImageFix" result="effect1_dropShadow_711_7"/>
<feBlend mode="normal" in="SourceGraphic" in2="effect1_dropShadow_711_7" result="shape"/>
</filter>
</defs>
</svg>
