<svg width="43" height="148" viewBox="0 0 43 148" fill="none" xmlns="http://www.w3.org/2000/svg">
<g filter="url(#filter0_d_670_2302)">
<rect width="28" height="74.6667" transform="matrix(-1 0 0 1 33.5 34.667)" fill="white"/>
<path d="M13.0834 32.9167C14.4834 31.9834 23.389 47.3056 27.6667 55.0834L13.0834 70.2503L24.7501 90.0837L13.0834 111.084" stroke="#FF7979" stroke-width="4"/>
<path d="M37 7C37 4.23858 34.7614 2 32 2H7C4.23857 2 2 4.23858 2 7V37H37V7Z" fill="#F6E58D"/>
<path d="M2 137C2 139.761 4.23858 142 7 142L32 142C34.7614 142 37 139.761 37 137L37 107L2 107L2 137Z" fill="#F6E58D"/>
</g>
<defs>
<filter id="filter0_d_670_2302" x="0" y="0" width="43" height="148" filterUnits="userSpaceOnUse" color-interpolation-filters="sRGB">
<feFlood flood-opacity="0" result="BackgroundImageFix"/>
<feColorMatrix in="SourceAlpha" type="matrix" values="0 0 0 0 0 0 0 0 0 0 0 0 0 0 0 0 0 0 127 0" result="hardAlpha"/>
<feOffset dx="2" dy="2"/>
<feGaussianBlur stdDeviation="2"/>
<feComposite in2="hardAlpha" operator="out"/>
<feColorMatrix type="matrix" values="0 0 0 0 0 0 0 0 0 0 0 0 0 0 0 0 0 0 0.25 0"/>
<feBlend mode="normal" in2="BackgroundImageFix" result="effect1_dropShadow_670_2302"/>
<feBlend mode="normal" in="SourceGraphic" in2="effect1_dropShadow_670_2302" result="shape"/>
</filter>
</defs>
</svg>
